<svg xmlns="http://www.w3.org/2000/svg" version="1.1" xmlns:xlink="http://www.w3.org/1999/xlink" xmlns:svgjs="http://svgjs.com/svgjs" width="1440" height="560" preserveAspectRatio="none" viewBox="0 0 1440 560"><g mask="url(&quot;#SvgjsMask1053&quot;)" fill="none"><rect width="1440" height="560" x="0" y="0" fill="rgba(255, 215, 243, 1)"></rect><path d="M 0,51 C 17,82.4 51,194 85,208 C 119,222 136,127.6 170,121 C 204,114.4 221,176.6 255,175 C 289,173.4 306,110.6 340,113 C 374,115.4 391,196.2 425,187 C 459,177.8 476,71.4 510,67 C 544,62.6 561,154.6 595,165 C 629,175.4 646,114.4 680,119 C 714,123.6 731,195.2 765,188 C 799,180.8 816,81.2 850,83 C 884,84.8 901,186 935,197 C 969,208 986,139.2 1020,138 C 1054,136.8 1071,193.6 1105,191 C 1139,188.4 1156,115 1190,125 C 1224,135 1241,266 1275,241 C 1309,216 1327,10.2 1360,0 C 1393,-10.2 1424,152 1440,190L1440 560L0 560z" fill="rgba(247, 231, 235, 1)"></path><path d="M 0,439 C 144,427.6 432,382 720,382 C 1008,382 1296,427.6 1440,439L1440 560L0 560z" fill="rgba(255, 238, 250, 1)"></path></g><defs><mask id="SvgjsMask1053"><rect width="1440" height="560" fill="#ffffff"></rect></mask></defs></svg>