<?xml version="1.0" standalone="no"?>
<!DOCTYPE svg PUBLIC "-//W3C//DTD SVG 20010904//EN"
 "http://www.w3.org/TR/2001/REC-SVG-20010904/DTD/svg10.dtd">
<svg version="1.0" xmlns="http://www.w3.org/2000/svg"
 width="712.000000pt" height="712.000000pt" viewBox="0 0 712.000000 712.000000"
 preserveAspectRatio="xMidYMid meet">
<metadata>
Created by potrace 1.14, written by Peter Selinger 2001-2017
</metadata>
<g transform="translate(0.000000,712.000000) scale(0.100000,-0.100000)"
fill="#000000" stroke="none">
<path d="M3275 7100 c-213 -23 -224 -25 -345 -47 -166 -30 -305 -65 -457 -114
-187 -61 -262 -91 -463 -187 -600 -285 -1149 -785 -1489 -1354 l-23 -38 274 1
273 0 42 57 c226 309 559 607 907 811 369 217 823 367 1226 406 36 4 83 8 105
11 62 7 392 7 470 0 103 -9 196 -21 255 -31 8 -1 35 -6 60 -10 70 -11 288 -63
360 -87 77 -24 247 -85 275 -98 219 -98 399 -195 533 -287 35 -24 65 -43 68
-43 2 0 12 -7 21 -15 10 -8 47 -37 83 -65 36 -28 83 -65 105 -83 79 -62 343
-334 424 -437 226 -285 393 -588 511 -925 57 -165 121 -432 136 -570 3 -27 7
-56 10 -63 17 -53 24 -464 11 -627 -12 -148 -17 -183 -48 -340 -42 -212 -80
-344 -168 -576 -32 -85 -163 -343 -221 -437 l-51 -82 -216 252 c-119 139 -237
277 -262 307 -25 29 -53 61 -61 71 -29 33 -108 126 -294 345 -104 121 -199
232 -212 247 -13 15 -24 30 -24 32 0 2 19 7 43 11 67 12 214 62 265 92 130 75
251 194 316 311 139 248 159 647 46 912 -61 143 -187 305 -316 407 -82 64
-283 151 -390 167 -22 4 -66 11 -98 17 -33 6 -186 10 -340 10 -155 0 -506 0
-781 0 l-499 -1 69 -34 c91 -44 178 -110 261 -199 70 -75 165 -197 202 -258
l22 -37 463 3 c419 1 469 0 537 -17 207 -50 316 -157 344 -337 35 -220 -39
-436 -178 -525 -97 -62 -60 -59 -779 -70 -153 -2 -281 -6 -283 -9 -4 -4 83
-110 151 -183 5 -6 35 -39 65 -74 30 -35 89 -103 130 -150 41 -47 100 -115
130 -150 30 -35 60 -68 65 -74 6 -6 37 -42 70 -81 33 -38 65 -74 71 -80 6 -5
53 -59 105 -120 51 -60 96 -112 99 -115 3 -3 64 -72 135 -155 71 -82 132 -152
135 -155 3 -3 33 -36 66 -75 91 -107 107 -125 134 -155 14 -15 48 -53 75 -85
28 -33 129 -149 225 -260 96 -111 186 -215 199 -231 14 -16 61 -70 105 -119
45 -50 103 -115 129 -145 l48 -55 57 60 c138 145 324 400 444 605 212 363 366
788 433 1200 4 25 9 53 11 64 2 10 6 44 9 75 3 31 8 67 10 81 28 161 22 585
-12 830 -3 25 -7 54 -8 65 -7 53 -39 216 -52 270 -8 33 -16 68 -18 77 -9 43
-51 183 -87 288 -171 495 -457 954 -829 1330 -90 92 -134 132 -259 241 -65 56
-299 227 -362 264 -9 5 -49 30 -89 54 -190 116 -493 254 -714 325 -105 33
-279 82 -328 91 -12 3 -44 9 -72 15 -100 19 -203 35 -296 45 -30 4 -67 8 -84
11 -50 9 -535 12 -610 4z"/>
<path d="M331 5031 c-5 -3 -21 -35 -36 -71 -14 -36 -32 -78 -40 -95 -72 -162
-186 -589 -210 -787 -3 -24 -7 -53 -9 -64 -2 -12 -8 -59 -11 -105 -4 -46 -9
-100 -11 -119 -6 -52 -5 -428 0 -480 3 -25 8 -76 11 -115 3 -38 15 -124 25
-190 19 -116 23 -141 35 -195 3 -14 7 -34 10 -45 32 -152 114 -407 186 -579
430 -1022 1301 -1781 2372 -2066 140 -37 127 -34 302 -64 236 -41 352 -50 605
-50 260 0 368 9 608 50 593 101 1148 353 1625 736 53 44 97 84 97 90 0 6 -24
36 -52 67 -47 50 -148 162 -219 243 l-24 28 -85 -70 c-82 -68 -341 -250 -355
-250 -4 0 -19 -8 -33 -19 -47 -33 -253 -136 -367 -183 -153 -64 -370 -134
-505 -163 -151 -33 -207 -43 -275 -49 -27 -3 -66 -8 -85 -11 -93 -14 -423 -20
-545 -10 -122 10 -257 26 -325 40 -14 3 -41 8 -60 11 -99 16 -431 110 -505
144 -11 5 -65 28 -120 51 -458 195 -886 522 -1201 919 -306 387 -508 823 -613
1325 -9 45 -17 96 -36 230 -20 139 -25 445 -11 635 4 58 18 168 31 245 30 172
28 162 60 282 15 54 32 115 37 136 l10 37 117 1 c656 7 1519 -2 1626 -15 17
-2 61 -7 99 -11 101 -10 227 -48 341 -105 115 -56 137 -72 223 -158 131 -131
204 -298 219 -496 13 -165 4 -267 -38 -433 -62 -248 -183 -442 -341 -544 -52
-33 -170 -86 -208 -94 -8 -2 -33 -8 -55 -14 -65 -17 -131 -20 -507 -26 l-356
-6 -4 68 c-1 37 -3 397 -3 799 l0 730 -285 -1 -285 -1 2 -724 c3 -1107 5
-1387 13 -1400 10 -17 95 -20 570 -20 449 0 655 6 805 25 140 17 159 21 258
46 229 58 425 166 588 323 222 213 357 445 415 711 13 61 13 518 -1 595 -3 19
-10 60 -15 90 -5 30 -12 70 -15 88 -12 72 -88 281 -131 361 -148 276 -312 450
-519 553 -117 59 -230 98 -324 114 -14 3 -51 9 -81 14 -85 15 -193 19 -600 25
-206 3 -539 8 -740 11 -555 9 -1038 11 -1049 5z"/>
<path d="M4675 1698 c-111 -33 -155 -110 -111 -196 18 -34 91 -74 171 -93 59
-14 85 -34 85 -64 0 -30 -39 -49 -85 -41 -28 6 -39 15 -53 42 l-16 35 -63 -4
c-35 -2 -66 -7 -70 -10 -13 -14 21 -89 54 -117 18 -16 50 -32 70 -36 59 -11
154 -9 197 6 116 38 152 187 61 256 -19 14 -73 36 -121 49 -94 26 -116 39
-107 61 16 42 94 35 115 -11 10 -22 16 -24 57 -20 25 2 57 4 70 4 20 1 22 4
16 29 -14 57 -56 98 -111 108 -53 10 -129 11 -159 2z"/>
<path d="M2414 1686 c-1 -6 -2 -33 -1 -60 l2 -48 75 -2 75 -1 1 -170 c1 -93 2
-175 3 -181 2 -17 141 -18 142 -1 1 6 3 84 4 172 1 88 3 165 4 171 1 7 29 11
74 11 l72 -1 0 60 0 59 -224 1 c-148 0 -224 -3 -227 -10z"/>
<path d="M2939 1677 c-1 -29 -1 -427 0 -449 1 -14 12 -16 74 -15 l72 2 3 98
c2 73 6 97 16 97 24 0 54 -34 92 -105 20 -38 41 -75 46 -82 10 -12 168 -18
168 -6 0 19 -87 167 -110 186 l-28 24 36 19 c64 35 87 135 44 194 -35 47 -64
54 -244 56 -166 2 -168 2 -169 -19z m262 -88 c22 -11 30 -44 14 -65 -8 -11
-31 -19 -69 -22 l-56 -4 0 52 0 52 48 -3 c26 -1 54 -6 63 -10z"/>
<path d="M3591 1676 c-15 -30 -171 -445 -171 -456 0 -5 33 -9 74 -8 l74 1 11
39 12 39 86 -3 86 -3 12 -35 12 -35 78 -3 c61 -3 77 -1 73 10 -104 281 -172
464 -176 468 -2 3 -39 6 -82 6 -70 1 -79 0 -89 -20z m109 -183 c11 -38 23 -75
25 -83 4 -12 -5 -15 -42 -14 -26 0 -48 5 -50 11 -4 11 36 153 43 153 2 0 13
-30 24 -67z"/>
<path d="M3990 1454 l0 -244 70 0 69 0 3 132 3 132 89 -132 89 -132 69 0 c47
0 68 4 69 13 1 6 2 116 3 243 l1 231 -71 0 -71 0 0 -123 c0 -68 -2 -126 -4
-129 -3 -2 -44 53 -91 124 l-86 128 -71 0 -71 1 0 -244z"/>
</g>
</svg>
